<svg width="67" height="84" viewBox="0 0 67 84" fill="none" xmlns="http://www.w3.org/2000/svg">
<path d="M3.17224 9.30346L9.67722 0.5H46.5429L48.8415 19.749C49.3132 23.6988 51.8419 27.1033 55.4871 28.6959L59.2746 30.3507C62.9783 31.9689 65.5638 35.4088 66.0885 39.4164C66.618 43.4602 64.9711 47.4828 61.7578 49.9943L56.4347 54.1548C53.3799 56.5424 51.4607 60.097 51.1403 63.9609L49.6029 82.5L28.1829 78.0583L5.74293 80.45L7.98313 61.8778C8.30097 59.2427 9.03639 56.6751 10.1618 54.2714L15.7409 42.3548C12.8261 41.4395 10.8429 38.738 10.8429 35.6829V31.199C10.8429 30.5856 11.1309 30.0079 11.6207 29.6388L12.3754 29.07C13.6305 28.1241 12.9615 26.125 11.3898 26.125C11.0349 26.125 10.6895 26.0096 10.4058 25.7963L9.88365 25.4037L6.684 26.9602C5.26141 29.2555 1.72355 27.7713 2.349 25.1443L1.21365 21.7719C-0.209289 17.5453 0.521959 12.8902 3.17224 9.30346Z" fill="#E85A8E"/>
<path d="M6.684 26.9602L9.88365 25.4037C13.8874 23.4561 16.8037 19.7322 17.6918 15.3693L19.718 5.41469C19.8955 4.54297 20.6621 3.91667 21.5517 3.91667C22.5851 3.91667 23.4229 4.75446 23.4229 5.78793V15.064C23.4229 17.6445 24.3183 20.1452 25.9562 22.1393L28.0858 24.7321L29.4262 26.364C30.4491 27.6093 32.218 27.9415 33.6229 27.152C39.9233 23.6118 43.8229 16.9474 43.8229 9.7205V3.91667M16.2829 42.525L15.7409 42.3548C12.8261 41.4395 10.8429 38.738 10.8429 35.6829V31.199C10.8429 30.5856 11.1309 30.0079 11.6207 29.6388L12.3754 29.07C13.6305 28.1241 12.9615 26.125 11.3898 26.125C11.0349 26.125 10.6895 26.0096 10.4058 25.7963L9.88365 25.4037M15.7409 42.3548L10.1618 54.2714C9.03639 56.6751 8.30097 59.2427 7.98313 61.8778L5.74293 80.45L28.1829 78.0583M29.8829 55.5083L28.1829 78.0583M28.1829 78.0583L49.6029 82.5L51.1403 63.9609C51.4607 60.097 53.3799 56.5424 56.4347 54.1548L61.7578 49.9943C64.9711 47.4828 66.618 43.4602 66.0885 39.4164C65.5638 35.4088 62.9783 31.9689 59.2746 30.3507L55.4871 28.6959C51.8419 27.1033 49.3132 23.6988 48.8415 19.749L46.5429 0.5H9.67722L3.17224 9.30346C0.521959 12.8902 -0.209289 17.5453 1.21365 21.7719L2.349 25.1443M28.0858 24.7321L28.836 27.1297C29.5674 29.467 32.8698 29.4824 33.6229 27.152M2.349 25.1443C1.72355 27.7713 5.26141 29.2555 6.684 26.9602M2.349 25.1443C2.95108 26.9326 4.98714 27.7856 6.684 26.9602" stroke="#F39CBC"/>
</svg>
